<svg width="18" height="18" fill="none" xmlns="http://www.w3.org/2000/svg"><path d="M7.197 12.025H5.73V7.259h1.467v4.766zm-.733-5.377c-.53 0-.794-.245-.794-.733a.678.678 0 01.229-.52.796.796 0 01.565-.214c.528 0 .793.246.793.734 0 .489-.264.733-.793.733zm6.172 5.377H11.14V9.367c0-.692-.246-1.039-.735-1.039-.387 0-.64.194-.764.58-.04.062-.06.185-.06.367v2.75H8.082V8.786c0-.733-.01-1.242-.03-1.527h1.283l.092.641c.336-.51.825-.764 1.497-.764.51 0 .922.178 1.237.535.318.356.475.87.475 1.543v2.811zM9 17.25C4.45 17.25.75 13.55.75 9S4.45.75 9 .75s8.25 3.7 8.25 8.25-3.7 8.25-8.25 8.25zM9 2.583A6.425 6.425 0 002.583 9 6.425 6.425 0 009 15.417 6.425 6.425 0 0015.417 9 6.425 6.425 0 009 2.583z" fill="#000"/></svg>